<svg width="1200" height="1200" xmlns="http://www.w3.org/2000/svg">
  <path fill="#fff" fill-rule="evenodd" d="M200 0C89.544 0 0 89.544 0 200v800c0 110.456 89.544 200 200 200h800c110.456 0 200-89.544 200-200V200c0-110.456-89.544-200-200-200Z"/>
  <path fill="#5b21b6" fill-rule="evenodd" d="M693.207 933.544c0 2.474-2.629 8.504-7.886 18.09-5.257 9.587-11.52 20.024-18.786 31.312-7.268 11.287-14.226 21.106-20.874 29.455-6.65 8.35-11.21 12.525-13.684 12.525-1.547 0-6.572-2.86-15.076-8.582-8.504-5.72-18.014-12.447-28.528-20.178-10.514-7.731-19.637-14.844-27.368-21.338-7.731-6.494-11.597-10.823-11.597-12.988 0-2.165 2.706-8.04 8.118-17.627 5.412-9.587 11.906-20.024 19.482-31.311 7.577-11.288 14.612-21.106 21.106-29.456 6.494-8.35 10.67-12.524 12.525-12.524 2.474 0 8.04 2.86 16.699 8.581 8.659 5.721 18.09 12.447 28.296 20.179 10.205 7.73 19.018 14.843 26.44 21.338 7.422 6.494 11.133 10.668 11.133 12.524Zm-26.44-230.078c2.474 0 7.963 2.86 16.467 8.581 8.504 5.721 17.781 12.447 27.832 20.179 10.05 7.73 18.71 14.843 25.976 21.337 7.268 6.495 10.901 10.67 10.901 12.525 0 2.165-2.628 7.963-7.885 17.395-5.258 9.432-11.442 19.714-18.555 30.847-7.113 11.133-13.839 20.797-20.178 28.992-6.34 8.195-10.592 12.292-12.757 12.292-1.546 0-6.262-2.783-14.148-8.35-7.885-5.566-16.776-12.06-26.672-19.482-9.896-7.422-18.555-13.993-25.977-19.714-7.421-5.721-11.442-8.89-12.06-9.51-3.093-2.473-5.566-3.71-7.422-3.71-1.546 0-3.402 1.855-5.566 5.566-.31.619-2.938 4.561-7.886 11.829-4.948 7.267-10.9 15.54-17.859 24.817-6.958 9.277-13.375 17.472-19.25 24.585-5.876 7.112-10.05 10.668-12.525 10.668-1.237 0-6.107-2.86-14.612-8.581-8.504-5.721-17.936-12.447-28.296-20.178-10.36-7.731-19.405-14.844-27.136-21.338-7.731-6.494-11.596-10.67-11.596-12.525 0-2.164 2.783-8.04 8.35-17.627 5.566-9.586 12.06-20.023 19.482-31.31 7.421-11.288 14.302-21.107 20.642-29.456 6.34-8.35 10.282-12.525 11.828-12.525 2.783 0 8.195 2.784 16.236 8.35 8.04 5.566 16.621 11.983 25.744 19.25 9.123 7.268 17.086 13.84 23.89 19.715 6.803 5.876 10.514 8.968 11.132 9.277 3.402 2.783 5.721 4.175 6.958 4.175 2.165 0 4.793-2.165 7.886-6.494.618-.619 3.556-4.484 8.813-11.597a2441.336 2441.336 0 0 1 18.091-24.12c6.804-8.969 13.143-16.855 19.019-23.658 5.875-6.804 9.586-10.205 11.133-10.205Zm346.508-367.847c0 21.338-3.247 45.614-9.74 72.827-6.495 27.214-15.695 52.958-27.6 77.234-11.907 24.276-26.21 43.062-42.909 56.36-20.1 15.772-47.237 30.306-81.408 43.604-34.172 13.297-72.44 24.74-114.807 34.326-42.367 9.586-86.28 17.085-131.739 22.497-45.459 5.412-89.526 8.118-132.202 8.118-89.681 0-160.111-15.926-211.291-47.778-51.18-31.853-76.77-76.229-76.77-133.13 0-24.121 3.633-47.005 10.9-68.653 7.268-21.647 15.85-40.974 25.745-57.983 9.896-17.009 18.787-30.383 26.672-40.124 7.886-9.742 12.293-14.612 13.22-14.612 1.856 0 5.258 1.623 10.206 4.87 4.948 3.247 7.422 7.036 7.422 11.365-25.05 35.563-37.574 71.59-37.574 108.081 0 31.234 12.138 54.659 36.414 70.276 24.276 15.617 56.746 26.054 97.412 31.311 40.666 5.257 85.429 7.886 134.29 7.886 34.944 0 72.363-1.546 112.255-4.639 39.893-3.092 79.244-7.576 118.055-13.452 38.81-5.876 74.141-13.066 105.993-21.57 31.853-8.504 57.288-18.4 76.306-29.687 19.02-11.288 28.528-23.735 28.528-37.342 0-6.185-4.252-14.38-12.756-24.585-8.504-10.205-17.008-20.951-25.513-32.238-8.504-11.288-12.756-21.416-12.756-30.384 0-4.638 2.242-13.761 6.726-27.368s9.741-28.528 15.771-44.763c6.03-16.235 11.597-30.77 16.7-43.604 5.102-12.833 8.427-20.796 9.973-23.889 10.205 9.587 20.255 22.343 30.151 38.27 9.896 15.925 18.091 33.32 24.585 52.184 6.494 18.864 9.741 37.728 9.741 56.592Z"/>
</svg>
